<svg width="80" height="80" viewBox="0 0 80 80" fill="none" xmlns="http://www.w3.org/2000/svg">
<path d="M0 23.3846C0 10.4696 10.4696 0 23.3846 0V23.3846H0Z" fill="#9747FF"/>
<path d="M0 56.6154H23.3846V80C10.4696 80 0 69.5303 0 56.6154Z" fill="#9747FF"/>
<path d="M0 28.3077H11.6923C18.1498 28.3077 23.3846 33.5425 23.3846 40C23.3846 46.4575 18.1498 51.6923 11.6923 51.6923H0V28.3077Z" fill="#9747FF"/>
<path d="M28.3077 0H51.6924V11.6923C51.6924 18.1498 46.4575 23.3846 40 23.3846C33.5426 23.3846 28.3077 18.1498 28.3077 11.6923V0Z" fill="#9747FF"/>
<path d="M28.3077 68.3077C28.3077 61.8502 33.5426 56.6154 40 56.6154C46.4575 56.6154 51.6924 61.8502 51.6924 68.3077V80H28.3077V68.3077Z" fill="#9747FF"/>
<path d="M56.6154 0C69.5303 0 80 10.4696 80 23.3846H56.6154V0Z" fill="#9747FF"/>
<path d="M56.6154 56.6154C69.5303 56.6154 80 67.085 80 80C67.085 80 56.6154 69.5303 56.6154 56.6154Z" fill="#00B1BC"/>
<path d="M40 28.3077L51.6923 40L40 51.6923L28.3077 40L40 28.3077Z" fill="#00B1BC"/>
<path d="M56.6154 40C56.6154 33.5425 61.8502 28.3077 68.3077 28.3077H80V51.6923H68.3077C61.8502 51.6923 56.6154 46.4575 56.6154 40Z" fill="#9747FF"/>
</svg>
