<?xml version="1.0" standalone="no"?>
<!DOCTYPE svg PUBLIC "-//W3C//DTD SVG 20010904//EN"
 "http://www.w3.org/TR/2001/REC-SVG-20010904/DTD/svg10.dtd">
<svg version="1.0" xmlns="http://www.w3.org/2000/svg"
 width="700.000000pt" height="700.000000pt" viewBox="0 0 700.000000 700.000000"
 preserveAspectRatio="xMidYMid meet">
<metadata>
Created by potrace 1.14, written by Peter Selinger 2001-2017
</metadata>
<g transform="translate(0.000000,700.000000) scale(0.100000,-0.100000)"
fill="#000000" stroke="none">
<path d="M1887 6994 c-1 -1 -31 -4 -67 -8 -120 -11 -257 -40 -391 -82 -496
-155 -926 -510 -1182 -974 -33 -61 -114 -239 -122 -270 0 -3 -13 -41 -27 -85
-28 -84 -44 -140 -52 -190 -3 -16 -8 -39 -10 -50 -18 -92 -23 -137 -32 -272
-5 -83 -4 -103 7 -104 8 -1 469 -3 1025 -3 l1011 -2 -1 1021 -1 1020 -78 0
c-43 1 -79 0 -80 -1z"/>
<path d="M2478 6988 c-6 -21 -1 -1056 6 -1129 3 -36 17 -106 31 -155 89 -312
311 -558 610 -677 611 -243 1285 147 1386 803 11 70 21 1125 11 1158 -6 18
-2038 18 -2044 0z"/>
<path d="M4954 5978 l1 -1023 1023 0 1023 -1 -6 116 c-6 124 -6 122 -36 283
-81 434 -335 866 -679 1157 -36 30 -67 58 -70 61 -3 4 -56 41 -119 83 -267
178 -576 292 -896 332 -11 1 -70 5 -131 9 l-110 6 0 -1023z"/>
<path d="M2 3501 l3 -1024 530 -1 c582 -1 635 2 779 43 238 69 460 243 590
464 25 43 46 80 46 83 0 3 9 24 19 48 42 91 72 234 76 364 13 438 -278 854
-696 991 -152 50 -202 53 -797 55 l-552 1 2 -1024z"/>
<path d="M5925 4523 c-140 -12 -300 -55 -408 -110 -351 -177 -571 -544 -561
-933 4 -161 32 -277 103 -425 154 -321 462 -536 817 -571 38 -4 305 -7 594 -8
l525 0 0 1024 0 1024 -520 1 c-286 0 -533 -1 -550 -2z"/>
<path d="M2985 4010 l-509 -509 512 -513 512 -513 512 513 513 512 -500 500
c-275 276 -507 505 -515 510 -12 7 -130 -106 -525 -500z"/>
<path d="M5 1940 c6 -108 12 -167 20 -210 3 -14 7 -41 10 -60 28 -172 105
-392 203 -580 44 -85 152 -253 194 -302 13 -14 38 -44 56 -66 50 -61 159 -171
233 -233 352 -298 811 -477 1239 -483 l85 -1 1 1020 0 1021 -1024 0 -1024 0 7
-106z"/>
<path d="M3417 2044 c-1 -1 -28 -5 -60 -9 -267 -30 -542 -202 -705 -441 -85
-124 -153 -307 -168 -450 -8 -81 -12 -1122 -3 -1135 3 -5 420 -8 1024 -7
l1019 3 -1 555 c0 305 -3 572 -7 592 -41 251 -142 449 -306 604 -81 77 -114
102 -180 142 -113 67 -263 122 -381 138 -43 6 -227 13 -232 8z"/>
<path d="M4956 2042 c-6 -11 8 -231 18 -289 4 -24 14 -80 20 -118 11 -61 67
-248 102 -337 208 -528 610 -930 1159 -1158 84 -35 269 -88 370 -106 92 -16
166 -24 263 -29 l113 -6 -6 108 c-4 59 -8 117 -9 128 -38 303 -140 600 -282
823 -19 29 -34 55 -34 58 0 2 -32 48 -72 102 -147 198 -406 430 -618 552 -119
69 -333 164 -420 186 -8 2 -49 12 -90 23 -75 20 -87 22 -190 40 -114 20 -317
34 -324 23z"/>
</g>
</svg>
